Coordinates
version=1
nRows=24
nColumns=22
inDegrees=yes

Units are S.I. units (second, meters, Newtons, ...)
If the header above contains a line with 'inDegrees', this indicates whether rotational values are in degrees (yes) or radians (no).

endheader
time	pelvis_tilt	pelvis_list	pelvis_rotation	pelvis_tx	pelvis_ty	pelvis_tz	hip_flexion_r	hip_adduction_r	hip_rotation_r	knee_angle_r	ankle_angle_r	subtalar_angle_r	hip_flexion_l	hip_adduction_l	hip_rotation_l	knee_angle_l	ankle_angle_l	subtalar_angle_l	lumbar_extension	lumbar_bending	lumbar_rotation
      1.87000000	     -2.80803172	      1.79486313	    141.38882958	     -0.17786902	      0.92591140	      0.79752841	      3.16031372	      9.52313108	     -3.64754480	    -18.31519691	      7.99366441	     -7.00370926	     17.94104860	     -9.87972940	     -2.15984597	    -56.88937972	      2.07529620	      7.93713530	     -9.64479384	     -2.06127725	      4.56863651
      1.88000000	     -2.72672382	      1.79246005	    140.35405230	     -0.18249443	      0.92605624	      0.79151502	      2.42400072	      9.65086896	     -2.62432702	    -17.89884325	      8.11669828	     -6.94166200	     18.55447470	    -10.11581462	     -2.24195425	    -54.53468185	      2.55847218	      7.28356583	     -9.54583472	     -2.15716286	      5.07738994
      1.89000000	     -2.61799086	      1.80666171	    139.30143892	     -0.18711679	      0.92602348	      0.78549935	      1.72412650	      9.78600053	     -1.60436137	    -17.53970501	      8.26356878	     -6.89096811	     19.06401705	    -10.38632039	     -2.39284299	    -51.95656128	      2.93670966	      6.63776388	     -9.44097818	     -2.20790849	      5.59548365
      1.90000000	     -2.42605169	      1.80885676	    138.22195670	     -0.19169695	      0.92568795	      0.77947510	      1.14295463	      9.95214239	     -0.56263814	    -17.27256077	      8.44291903	     -6.86010635	     19.55094834	    -10.70316420	     -2.59359570	    -49.19791925	      3.23323069	      6.21808398	     -9.26359939	     -2.20315427	      6.13559094
      1.91000000	     -2.30926675	      1.88058958	    137.16503531	     -0.19637332	      0.92537276	      0.77347692	      0.44436243	     10.09791837	      0.48010621	    -17.01223051	      8.65727015	     -6.84888232	     19.81639792	    -10.98995129	     -2.83336492	    -46.23615451	      3.38874096	      5.54387286	     -9.21575474	     -2.17756001	      6.62668252
      1.92000000	     -2.06075637	      1.90419098	    136.08976498	     -0.20104553	      0.92465353	      0.76750082	     -0.05770175	     10.28450856	      1.52557970	    -16.87545256	      8.91982475	     -6.84380716	     20.15431731	    -11.31831743	     -3.11228360	    -43.16868943	      3.47931232	      5.22066382	     -9.02391562	     -2.07953416	      7.14473043
      1.93000000	     -1.89167109	      1.98883534	    135.05709580	     -0.20586665	      0.92395127	      0.76157450	     -0.66544413	     10.43787044	      2.54686234	    -16.76623219	      9.22317548	     -6.86906203	     20.29211391	    -11.57770888	     -3.38743581	    -39.95222640	      3.51965423	      4.80955684	     -8.95968100	     -1.96911850	      7.58123549
      1.94000000	     -1.65773435	      2.03655374	    134.04202856	     -0.21076115	      0.92296729	      0.75571801	     -1.14520825	     10.59338495	      3.53645776	    -16.76726375	      9.58659365	     -6.89027406	     20.46150950	    -11.80935776	     -3.64837215	    -36.68083496	      3.52154020	      4.62387353	     -8.82163672	     -1.81876823	      7.99879997
      1.95000000	     -1.37969919	      2.03673735	    133.05620185	     -0.21573973	      0.92172647	      0.74995686	     -1.49796658	     10.73240858	      4.47403351	    -16.88938592	     10.02360045	     -6.89734792	     20.66750148	    -11.98306511	     -3.87049586	    -33.38608888	      3.51238658	      4.60280274	     -8.62260912	     -1.64765225	      8.37618804
      1.96000000	     -1.16424833	      2.06571767	    132.12434154	     -0.22087976	      0.92047004	      0.74426253	     -1.90600556	     10.82727580	      5.35959496	    -17.05120454	     10.48538502	     -6.92254270	     20.75032803	    -12.06044617	     -4.02720753	    -30.04711098	      3.53023469	      4.80827954	     -8.50932365	     -1.48172131	      8.66164673
      1.97000000	     -0.91162027	      2.03036600	    131.22720972	     -0.22610454	      0.91896646	      0.73865303	     -2.17784424	     10.89291558	      6.17144562	    -17.32913604	     11.01536126	     -6.91604255	     20.89816311	    -12.07030984	     -4.13790380	    -26.74818445	      3.56130979	      5.24550008	     -8.32472910	     -1.31575523	      8.90330715
      1.98000000	     -0.66752360	      1.96603698	    130.37324452	     -0.23144511	      0.91732149	      0.73311591	     -2.38782731	     10.92140994	      6.91377151	    -17.69852305	     11.59077823	     -6.88690506	     21.04879951	    -12.00606329	     -4.21675066	    -23.50527436	      3.59970187	      5.94877782	     -8.13465563	     -1.15771089	      9.06467314
      1.99000000	     -0.43734507	      1.87350741	    129.55680126	     -0.23690648	      0.91555340	      0.72759628	     -2.55963497	     10.90946173	      7.57987383	    -18.12327025	     12.20246476	     -6.83698563	     21.20179644	    -11.87928422	     -4.31320626	    -20.35026979	      3.62790144	      6.89648736	     -7.93602122	     -1.01671121	      9.17315964
      2.00000000	     -0.22918807	      1.76696346	    128.77522270	     -0.24250690	      0.91369254	      0.72205800	     -2.72293029	     10.85988401	      8.16769343	    -18.58202142	     12.84185268	     -6.77495969	     21.34797156	    -11.70218318	     -4.47703194	    -17.32316055	      3.62588595	      8.07142949	     -7.74243534	     -0.88958059	      9.23823821
      2.01000000	     -0.05047971	      1.65512234	    128.02415826	     -0.24823119	      0.91175979	      0.71647858	     -2.90296911	     10.77494683	      8.70988499	    -19.05102848	     13.50383830	     -6.70967257	     21.49195931	    -11.48297350	     -4.74783311	    -14.47786972	      3.57318582	      9.42936541	     -7.56668759	     -0.78219643	      9.24393758
      2.02000000	      0.10843461	      1.55882857	    127.30786149	     -0.25407450	      0.90977464	      0.71083303	     -3.12332171	     10.67941428	      9.21711340	    -19.50799613	     14.17202187	     -6.65011178	     21.63945182	    -11.24599002	     -5.12950803	    -11.86811841	      3.46580566	     10.90691530	     -7.42046683	     -0.67423881	      9.19833754
      2.03000000	      0.24390582	      1.46967848	    126.61531484	     -0.26004882	      0.90774774	      0.70510407	     -3.38571149	     10.55599165	      9.66572192	    -19.93837831	     14.83898459	     -6.60293105	     21.81358678	    -10.99197893	     -5.66336881	     -9.56745787	      3.32650083	     12.36009484	     -7.29176415	     -0.57751630	      9.14883054
      2.04000000	      0.36413458	      1.39991368	    125.95890226	     -0.26610737	      0.90569496	      0.69931072	     -3.69735369	     10.42856674	     10.09878627	    -20.33608409	     15.48393904	     -6.57257944	     22.04329091	    -10.73939471	     -6.30707005	     -7.65738399	      3.16140693	     13.67658344	     -7.19738017	     -0.48058106	      9.05492939
      2.05000000	      0.49096366	      1.37909055	    125.36142693	     -0.27229342	      0.90365668	      0.69345013	     -4.09600561	     10.33117135	     10.51732028	    -20.64852631	     16.09829476	     -6.56151284	     22.34714561	    -10.52439600	     -6.98061057	     -6.21894182	      3.00118856	     14.76265539	     -7.14294800	     -0.33832084	      8.91774247
      2.06000000	      0.60610022	      1.38116883	    124.80675970	     -0.27853561	      0.90164059	      0.68751805	     -4.54530799	     10.23825629	     10.93398220	    -20.92512094	     16.65774664	     -6.56752749	     22.75427940	    -10.33514212	     -7.71414206	     -5.32818403	      2.86088702	     15.42749535	     -7.12525768	     -0.19630433	      8.73759835
      2.07000000	      0.73429454	      1.43280912	    124.30740770	     -0.28486023	      0.89967034	      0.68149256	     -5.07519062	     10.18317899	     11.32547341	    -21.12105091	     17.18592136	     -6.57892990	     23.25118408	    -10.21145090	     -8.39958241	     -4.99119956	      2.80658540	     15.68700290	     -7.15009855	     -0.01710033	      8.55923738
      2.08000000	      0.84487344	      1.53907022	    123.85508334	     -0.29125025	      0.89780717	      0.67533635	     -5.69872766	     10.14843062	     11.72321736	    -21.26620967	     17.59965872	     -6.61248369	     23.81248807	    -10.14276004	     -9.03266599	     -5.23263274	      2.78820664	     15.67395669	     -7.23568775	      0.17269436	      8.33391203
      2.09000000	      0.94874550	      1.68297211	    123.39936548	     -0.29763958	      0.89602991	      0.66902537	     -6.38166308	     10.12920418	     12.16077797	    -21.38974641	     17.94926141	     -6.66429063	     24.41259438	    -10.14677378	     -9.57009591	     -5.98073414	      2.84478021	     15.33657275	     -7.36363177	      0.36410533	      8.15143672
      2.10000000	      1.06746039	      1.82466226	    122.93364556	     -0.30401457	      0.89431264	      0.66256550	     -7.05863962	     10.12299103	     12.63104132	    -21.52221568	     18.19226318	     -6.77726992	     25.04585855	    -10.20798771	     -9.92817466	     -7.10840188	      2.86543700	     14.41156159	     -7.47828433	      0.55177575	      7.99305962
